# xmcd
#
# Track frame offsets:
#	182
#	19382
#	38072
#	56950
#	76250
#	95547
#	115685
#	133852
#
# Disc length: 2041 seconds
#
# Revision: 0
# Processed by: cddbd v1.5.2PL0 Copyright (c) Steve Scherf et al.
# Submitted via: EasyCDDAExtractor 16.0.1.1
#
DISCID=6707f708
DTITLE=Zion - Ou Cé Di
DYEAR=1993
DGENRE=Zouk
TTITLE0=Ou Cé Di
TTITLE1=Séraj
TTITLE2=Dwol Mélanj'
TTITLE3=Mèm Si Yo Diw
TTITLE4=Sovajri
TTITLE5=Kalenger
TTITLE6=Esplikew
TTITLE7=Y Ja Lè Pou
EXTD=
EXTT0=
EXTT1=
EXTT2=
EXTT3=
EXTT4=
EXTT5=
EXTT6=
EXTT7=
PLAYORDER=
